<svg xmlns="http://www.w3.org/2000/svg" viewBox="0 0 100 100" width="100" height="100">
  <defs>
    <linearGradient id="grad1" x1="0%" y1="0%" x2="100%" y2="100%">
      <stop offset="0%" style="stop-color:#00ff00;stop-opacity:1" />
      <stop offset="100%" style="stop-color:#00aa00;stop-opacity:1" />
    </linearGradient>
  </defs>
  
  <!-- Bank building -->
  <rect x="15" y="25" width="70" height="50" fill="#1a1a1a" stroke="url(#grad1)" stroke-width="2" rx="3"/>
  
  <!-- Columns -->
  <rect x="22" y="30" width="8" height="40" fill="url(#grad1)"/>
  <rect x="35" y="30" width="8" height="40" fill="url(#grad1)"/>
  <rect x="48" y="30" width="8" height="40" fill="url(#grad1)"/>
  <rect x="61" y="30" width="8" height="40" fill="url(#grad1)"/>
  <rect x="74" y="30" width="8" height="40" fill="url(#grad1)"/>
  
  <!-- Roof -->
  <polygon points="10,25 50,10 90,25" fill="url(#grad1)"/>
  
  <!-- Steps -->
  <rect x="10" y="75" width="80" height="3" fill="#333"/>
  <rect x="12" y="78" width="76" height="3" fill="#444"/>
  <rect x="14" y="81" width="72" height="3" fill="#555"/>
  
  <!-- Blockchain elements -->
  <circle cx="25" cy="45" r="3" fill="#ffff00" opacity="0.8"/>
  <circle cx="75" cy="45" r="3" fill="#ffff00" opacity="0.8"/>
  <line x1="28" y1="45" x2="72" y2="45" stroke="#ffff00" stroke-width="1" opacity="0.6"/>
  
  <!-- ETH symbol -->
  <text x="50" y="52" font-family="Arial, sans-serif" font-size="12" fill="#00ffff" text-anchor="middle" font-weight="bold">₿</text>
</svg>
